The Savage Eye S02E03 Sport [RTE Ireland] HDTV 720P x264 AC3

Returning for yet another round of hilarity are The Politicians, The President for Life, The Bull Mick, the child-snatching Priest, and the lonely farmers.

Episode 3 : SPORT: Why do the Irish love sports but never win anything except for Rugby which they only got good at recently?

File Info:
Complete name                            : The Savage Eye S02E03 Sport [RTE Ireland] HDTV 720P x264 AC3 DeViL303.mkv
Format                                   : Matroska
Format version                           : Version 1
File size                                : 470 MiB
Duration                                 : 26mn 19s
Overall bit rate mode                    : Variable
Overall bit rate                         : 2 496 Kbps
Encoded date                             : UTC 2013-02-26 00:50:46
Writing application                      : mkvmerge v2.5.3 ('Boogie') built on Mar  7 2009 15:00:41
Writing library                          : libebml v0.7.7 + libmatroska v0.8.1

Video
ID                                       : 1
Format                                   : AVC
Format/Info                              : Advanced Video Codec
Format profile                           : High@L4.0
Format settings, CABAC                   : Yes
Format settings, ReFrames                : 3 frames
Codec ID                                 : V_MPEG4/ISO/AVC
Duration                                 : 26mn 19s
Bit rate mode                            : Variable
Bit rate                                 : 2 303 Kbps
Maximum bit rate                         : 20.0 Mbps
Width                                    : 1 280 pixels
Height                                   : 720 pixels
Display aspect ratio                     : 16:9
Frame rate mode                          : Constant
Frame rate                               : 25.000 fps
Color space                              : YUV
Chroma subsampling                       : 4:2:0
Bit depth                                : 8 bits
Scan type                                : Progressive
Bits/(Pixel*Frame)                       : 0.100
Stream size                              : 424 MiB (90%)
Writing library                          : x264 core 93 r1542M 5b86182
Encoding settings                        : cabac=1 / ref=4 / deblock=1:-1:-1 / 
Default                                  : Yes
Forced                                   : No

Audio
ID                                       : 2
Format                                   : AC-3
Format/Info                              : Audio Coding 3
Mode extension                           : CM (complete main)
Format settings, Endianness              : Big
Codec ID                                 : A_AC3
Duration                                 : 26mn 19s
Bit rate mode                            : Constant
Bit rate                                 : 192 Kbps
Channel(s)                               : 2 channels
Channel positions                        : Front: L R
Sampling rate                            : 48.0 KHz
Bit depth                                : 16 bits
Compression mode                         : Lossy
Stream size                              : 36.1 MiB (8%)
Default                                  : Yes
Forced                                   : No

Text
ID                                       : 3
Format                                   : SSA
Codec ID                                 : S_TEXT/SSA
Codec ID/Info                            : Sub Station Alpha
Compression mode                         : Lossless
Default                                  : Yes
Forced                                   : No

Menu
00:00:00.000                             : en:Chapter 1n[00:00:00]
00:02:23.574                             : en:Chapter 2n[00:02:23]
00:04:47.149                             : en:Chapter 3n[00:04:47]
00:07:10.723                             : en:Chapter 4n[00:07:10]
00:09:34.298                             : en:Chapter 5n[00:09:34]
00:11:57.872                             : en:Chapter 6n[00:11:57]
00:14:21.447                             : en:Chapter 7n[00:14:21]
00:16:45.021                             : en:Chapter 8n[00:16:45]
00:19:08.596                             : en:Chapter 9n[00:19:08]
00:21:32.170                             : en:Chapter 10n[00:21:32]
00:23:55.745                             : en:Chapter 11n[00:23:55]
00:26:17.319                             : en:Chapter 12n[00:26:17]

